<mxfile host="Electron" agent="Mozilla/5.0 (Macintosh; Intel Mac OS X 10_15_7) AppleWebKit/537.36 (KHTML, like Gecko) draw.io/26.0.4 Chrome/128.0.6613.186 Electron/32.2.5 Safari/537.36" version="26.0.4" pages="3">
  <diagram id="51zmUan4mFf6pz3q3UUt" name="C4-1">
    <mxGraphModel dx="1714" dy="2389" grid="1" gridSize="10" guides="1" tooltips="1" connect="1" arrows="1" fold="1" page="1" pageScale="1" pageWidth="827" pageHeight="1169" math="0" shadow="0">
      <root>
        <mxCell id="0" />
        <mxCell id="1" parent="0" />
        <object placeholders="1" c4Name="MVP Онлайн депозитов" c4Type="Software System" c4Description="Система для открытия онлайн депозитов" label="&lt;font style=&quot;font-size: 16px&quot;&gt;&lt;b&gt;%c4Name%&lt;/b&gt;&lt;/font&gt;&lt;div&gt;[%c4Type%]&lt;/div&gt;&lt;br&gt;&lt;div&gt;&lt;font style=&quot;font-size: 11px&quot;&gt;&lt;font color=&quot;#cccccc&quot;&gt;%c4Description%&lt;/font&gt;&lt;/div&gt;" id="mnx0l-a2shKFe-u0mm0O-7">
          <mxCell style="rounded=1;whiteSpace=wrap;html=1;labelBackgroundColor=none;fillColor=#999999;fontColor=#ffffff;align=center;arcSize=10;strokeColor=#0D5091;metaEdit=1;resizable=0;points=[[0.25,0,0],[0.5,0,0],[0.75,0,0],[1,0.25,0],[1,0.5,0],[1,0.75,0],[0.75,1,0],[0.5,1,0],[0.25,1,0],[0,0.75,0],[0,0.5,0],[0,0.25,0]];" parent="1" vertex="1">
            <mxGeometry x="520" y="-390" width="240" height="120" as="geometry" />
          </mxCell>
        </object>
        <object placeholders="1" c4Name="Сотрудник" c4Type="Person" c4Description="Сотрудник кол-центра" label="&lt;font style=&quot;font-size: 16px&quot;&gt;&lt;b&gt;%c4Name%&lt;/b&gt;&lt;/font&gt;&lt;div&gt;[%c4Type%]&lt;/div&gt;&lt;br&gt;&lt;div&gt;&lt;font style=&quot;font-size: 11px&quot;&gt;&lt;font color=&quot;#cccccc&quot;&gt;%c4Description%&lt;/font&gt;&lt;/div&gt;" id="mnx0l-a2shKFe-u0mm0O-13">
          <mxCell style="html=1;fontSize=11;dashed=0;whiteSpace=wrap;fillColor=#083F75;strokeColor=#06315C;fontColor=#ffffff;shape=mxgraph.c4.person2;align=center;metaEdit=1;points=[[0.5,0,0],[1,0.5,0],[1,0.75,0],[0.75,1,0],[0.5,1,0],[0.25,1,0],[0,0.75,0],[0,0.5,0]];resizable=0;" parent="1" vertex="1">
            <mxGeometry x="530" y="-910" width="200" height="180" as="geometry" />
          </mxCell>
        </object>
        <object placeholders="1" c4Name="Хостинг SFPT" c4Type="Software System" c4Description="Хостинг для хранения файла со ставками, чтобы его можно было забирать и актуализировать во внешних системах" label="&lt;font style=&quot;font-size: 16px&quot;&gt;&lt;b&gt;%c4Name%&lt;/b&gt;&lt;/font&gt;&lt;div&gt;[%c4Type%]&lt;/div&gt;&lt;br&gt;&lt;div&gt;&lt;font style=&quot;font-size: 11px&quot;&gt;&lt;font color=&quot;#cccccc&quot;&gt;%c4Description%&lt;/font&gt;&lt;/div&gt;" id="vwmjVTxcJnwqjbueOu5J-1">
          <mxCell style="rounded=1;whiteSpace=wrap;html=1;labelBackgroundColor=none;fillColor=#1061B0;fontColor=#ffffff;align=center;arcSize=10;strokeColor=#0D5091;metaEdit=1;resizable=0;points=[[0.25,0,0],[0.5,0,0],[0.75,0,0],[1,0.25,0],[1,0.5,0],[1,0.75,0],[0.75,1,0],[0.5,1,0],[0.25,1,0],[0,0.75,0],[0,0.5,0],[0,0.25,0]];" vertex="1" parent="1">
            <mxGeometry x="930" y="-390" width="240" height="120" as="geometry" />
          </mxCell>
        </object>
        <mxCell id="vwmjVTxcJnwqjbueOu5J-4" value="Запрашивает актуальные ставки" style="edgeStyle=orthogonalEdgeStyle;rounded=0;orthogonalLoop=1;jettySize=auto;html=1;" edge="1" parent="1" source="vwmjVTxcJnwqjbueOu5J-2" target="mnx0l-a2shKFe-u0mm0O-7">
          <mxGeometry relative="1" as="geometry" />
        </mxCell>
        <object placeholders="1" c4Name="Кол-центра" c4Type="Software System" c4Description="Внутренний кол-центр" label="&lt;font style=&quot;font-size: 16px&quot;&gt;&lt;b&gt;%c4Name%&lt;/b&gt;&lt;/font&gt;&lt;div&gt;[%c4Type%]&lt;/div&gt;&lt;br&gt;&lt;div&gt;&lt;font style=&quot;font-size: 11px&quot;&gt;&lt;font color=&quot;#cccccc&quot;&gt;%c4Description%&lt;/font&gt;&lt;/div&gt;" id="vwmjVTxcJnwqjbueOu5J-2">
          <mxCell style="rounded=1;whiteSpace=wrap;html=1;labelBackgroundColor=none;fillColor=#1061B0;fontColor=#ffffff;align=center;arcSize=10;strokeColor=#0D5091;metaEdit=1;resizable=0;points=[[0.25,0,0],[0.5,0,0],[0.75,0,0],[1,0.25,0],[1,0.5,0],[1,0.75,0],[0.75,1,0],[0.5,1,0],[0.25,1,0],[0,0.75,0],[0,0.5,0],[0,0.25,0]];" vertex="1" parent="1">
            <mxGeometry x="520" y="-644" width="240" height="120" as="geometry" />
          </mxCell>
        </object>
        <mxCell id="vwmjVTxcJnwqjbueOu5J-3" value="Обращается для уточнения&lt;br&gt;ставок по депозиту" style="edgeStyle=orthogonalEdgeStyle;rounded=0;orthogonalLoop=1;jettySize=auto;html=1;entryX=0.458;entryY=0.033;entryDx=0;entryDy=0;entryPerimeter=0;" edge="1" parent="1" source="mnx0l-a2shKFe-u0mm0O-13" target="vwmjVTxcJnwqjbueOu5J-2">
          <mxGeometry relative="1" as="geometry" />
        </mxCell>
        <mxCell id="vwmjVTxcJnwqjbueOu5J-6" style="edgeStyle=orthogonalEdgeStyle;rounded=0;orthogonalLoop=1;jettySize=auto;html=1;entryX=1;entryY=0.5;entryDx=0;entryDy=0;entryPerimeter=0;" edge="1" parent="1" source="vwmjVTxcJnwqjbueOu5J-1" target="mnx0l-a2shKFe-u0mm0O-7">
          <mxGeometry relative="1" as="geometry" />
        </mxCell>
        <mxCell id="vwmjVTxcJnwqjbueOu5J-7" value="Забирает актуальные&lt;br&gt;ставки" style="edgeLabel;html=1;align=center;verticalAlign=middle;resizable=0;points=[];labelBackgroundColor=none;" vertex="1" connectable="0" parent="vwmjVTxcJnwqjbueOu5J-6">
          <mxGeometry x="0.0279" y="-1" relative="1" as="geometry">
            <mxPoint as="offset" />
          </mxGeometry>
        </mxCell>
        <mxCell id="vwmjVTxcJnwqjbueOu5J-9" style="edgeStyle=orthogonalEdgeStyle;rounded=0;orthogonalLoop=1;jettySize=auto;html=1;" edge="1" parent="1" source="vwmjVTxcJnwqjbueOu5J-8" target="vwmjVTxcJnwqjbueOu5J-1">
          <mxGeometry relative="1" as="geometry" />
        </mxCell>
        <mxCell id="vwmjVTxcJnwqjbueOu5J-10" value="Забирает файл с&lt;br&gt;актуальными ставками&lt;br&gt;для хранения в системе" style="edgeLabel;html=1;align=center;verticalAlign=middle;resizable=0;points=[];" vertex="1" connectable="0" parent="vwmjVTxcJnwqjbueOu5J-9">
          <mxGeometry x="-0.075" y="-4" relative="1" as="geometry">
            <mxPoint as="offset" />
          </mxGeometry>
        </mxCell>
        <object placeholders="1" c4Name="Партнерский кол-центра" c4Type="Software System" c4Description="Партнерский кол-центр" label="&lt;font style=&quot;font-size: 16px&quot;&gt;&lt;b&gt;%c4Name%&lt;/b&gt;&lt;/font&gt;&lt;div&gt;[%c4Type%]&lt;/div&gt;&lt;br&gt;&lt;div&gt;&lt;font style=&quot;font-size: 11px&quot;&gt;&lt;font color=&quot;#cccccc&quot;&gt;%c4Description%&lt;/font&gt;&lt;/div&gt;" id="vwmjVTxcJnwqjbueOu5J-8">
          <mxCell style="rounded=1;whiteSpace=wrap;html=1;labelBackgroundColor=none;fillColor=#1061B0;fontColor=#ffffff;align=center;arcSize=10;strokeColor=#0D5091;metaEdit=1;resizable=0;points=[[0.25,0,0],[0.5,0,0],[0.75,0,0],[1,0.25,0],[1,0.5,0],[1,0.75,0],[0.75,1,0],[0.5,1,0],[0.25,1,0],[0,0.75,0],[0,0.5,0],[0,0.25,0]];" vertex="1" parent="1">
            <mxGeometry x="1340" y="-390" width="240" height="120" as="geometry" />
          </mxCell>
        </object>
        <mxCell id="vwmjVTxcJnwqjbueOu5J-12" style="edgeStyle=orthogonalEdgeStyle;rounded=0;orthogonalLoop=1;jettySize=auto;html=1;" edge="1" parent="1" source="vwmjVTxcJnwqjbueOu5J-11" target="vwmjVTxcJnwqjbueOu5J-8">
          <mxGeometry relative="1" as="geometry" />
        </mxCell>
        <mxCell id="vwmjVTxcJnwqjbueOu5J-13" value="Обращается для уточнения&lt;br&gt;ставок по депозиту" style="edgeLabel;html=1;align=center;verticalAlign=middle;resizable=0;points=[];" vertex="1" connectable="0" parent="vwmjVTxcJnwqjbueOu5J-12">
          <mxGeometry x="-0.2966" y="-1" relative="1" as="geometry">
            <mxPoint x="1" y="7" as="offset" />
          </mxGeometry>
        </mxCell>
        <object placeholders="1" c4Name="Сотрудник" c4Type="Person" c4Description="Сотрудник партнерского кол-центра" label="&lt;font style=&quot;font-size: 16px&quot;&gt;&lt;b&gt;%c4Name%&lt;/b&gt;&lt;/font&gt;&lt;div&gt;[%c4Type%]&lt;/div&gt;&lt;br&gt;&lt;div&gt;&lt;font style=&quot;font-size: 11px&quot;&gt;&lt;font color=&quot;#cccccc&quot;&gt;%c4Description%&lt;/font&gt;&lt;/div&gt;" id="vwmjVTxcJnwqjbueOu5J-11">
          <mxCell style="html=1;fontSize=11;dashed=0;whiteSpace=wrap;fillColor=#083F75;strokeColor=#06315C;fontColor=#ffffff;shape=mxgraph.c4.person2;align=center;metaEdit=1;points=[[0.5,0,0],[1,0.5,0],[1,0.75,0],[0.75,1,0],[0.5,1,0],[0.25,1,0],[0,0.75,0],[0,0.5,0]];resizable=0;" vertex="1" parent="1">
            <mxGeometry x="1360" y="-680" width="200" height="180" as="geometry" />
          </mxCell>
        </object>
      </root>
    </mxGraphModel>
  </diagram>
  <diagram id="27CiYci_m-JC5yw58xVj" name="C4-2">
    <mxGraphModel dx="2785" dy="883" grid="1" gridSize="10" guides="1" tooltips="1" connect="1" arrows="1" fold="1" page="1" pageScale="1" pageWidth="850" pageHeight="1100" math="0" shadow="0">
      <root>
        <mxCell id="0" />
        <mxCell id="1" parent="0" />
        <mxCell id="ZycbsdyIBxvUmtP-3mF8-3" value="&lt;span style=&quot;color: rgba(0, 0, 0, 0); font-family: monospace; font-size: 0px; text-align: start; background-color: rgb(251, 251, 251);&quot;&gt;%3CmxGraphModel%3E%3Croot%3E%3CmxCell%20id%3D%220%22%2F%3E%3CmxCell%20id%3D%221%22%20parent%3D%220%22%2F%3E%3CmxCell%20id%3D%222%22%20value%3D%22%D0%A0%D0%B0%D0%B1%D0%BE%D1%82%D0%B0%20%D1%81%20%D0%B4%D0%B5%D0%BF%D0%BE%D0%B7%D0%B8%D1%82%D0%B0%D0%BC%D0%B8%26lt%3Bbr%26gt%3B%5BHTTPS%5D%22%20style%3D%22edgeLabel%3Bhtml%3D1%3Balign%3Dcenter%3BverticalAlign%3Dmiddle%3Bresizable%3D0%3Bpoints%3D%5B%5D%3BlabelBackgroundColor%3Dnone%3B%22%20vertex%3D%221%22%20connectable%3D%220%22%20parent%3D%221%22%3E%3CmxGeometry%20x%3D%221013.75%22%20y%3D%22288%22%20as%3D%22geometry%22%2F%3E%3C%2FmxCell%3E%3C%2Froot%3E%3C%2FmxGraphModel%3E&lt;/span&gt;&lt;span style=&quot;color: rgba(0, 0, 0, 0); font-family: monospace; font-size: 0px; text-align: start; background-color: rgb(251, 251, 251);&quot;&gt;%3CmxGraphModel%3E%3Croot%3E%3CmxCell%20id%3D%220%22%2F%3E%3CmxCell%20id%3D%221%22%20parent%3D%220%22%2F%3E%3CmxCell%20id%3D%222%22%20value%3D%22%D0%A0%D0%B0%D0%B1%D0%BE%D1%82%D0%B0%20%D1%81%20%D0%B4%D0%B5%D0%BF%D0%BE%D0%B7%D0%B8%D1%82%D0%B0%D0%BC%D0%B8%26lt%3Bbr%26gt%3B%5BHTTPS%5D%22%20style%3D%22edgeLabel%3Bhtml%3D1%3Balign%3Dcenter%3BverticalAlign%3Dmiddle%3Bresizable%3D0%3Bpoints%3D%5B%5D%3BlabelBackgroundColor%3Dnone%3B%22%20vertex%3D%221%22%20connectable%3D%220%22%20parent%3D%221%22%3E%3CmxGeometry%20x%3D%221013.75%22%20y%3D%22288%22%20as%3D%22geometry%22%2F%3E%3C%2FmxCell%3E%3C%2Froot%3E%3C%2FmxGraphModel%3E&lt;/span&gt;" style="edgeStyle=orthogonalEdgeStyle;rounded=0;orthogonalLoop=1;jettySize=auto;html=1;" edge="1" parent="1" source="ZycbsdyIBxvUmtP-3mF8-1" target="ZycbsdyIBxvUmtP-3mF8-2">
          <mxGeometry relative="1" as="geometry" />
        </mxCell>
        <object placeholders="1" c4Name="Сотрудник" c4Type="Person" c4Description="Сотрудник кол-центра" label="&lt;font style=&quot;font-size: 16px&quot;&gt;&lt;b&gt;%c4Name%&lt;/b&gt;&lt;/font&gt;&lt;div&gt;[%c4Type%]&lt;/div&gt;&lt;br&gt;&lt;div&gt;&lt;font style=&quot;font-size: 11px&quot;&gt;&lt;font color=&quot;#cccccc&quot;&gt;%c4Description%&lt;/font&gt;&lt;/div&gt;" id="ZycbsdyIBxvUmtP-3mF8-1">
          <mxCell style="html=1;fontSize=11;dashed=0;whiteSpace=wrap;fillColor=#083F75;strokeColor=#06315C;fontColor=#ffffff;shape=mxgraph.c4.person2;align=center;metaEdit=1;points=[[0.5,0,0],[1,0.5,0],[1,0.75,0],[0.75,1,0],[0.5,1,0],[0.25,1,0],[0,0.75,0],[0,0.5,0]];resizable=0;" vertex="1" parent="1">
            <mxGeometry x="690" y="1310" width="200" height="180" as="geometry" />
          </mxCell>
        </object>
        <mxCell id="ZycbsdyIBxvUmtP-3mF8-5" style="edgeStyle=orthogonalEdgeStyle;rounded=0;orthogonalLoop=1;jettySize=auto;html=1;" edge="1" parent="1" source="ZycbsdyIBxvUmtP-3mF8-2" target="ZycbsdyIBxvUmtP-3mF8-4">
          <mxGeometry relative="1" as="geometry" />
        </mxCell>
        <object placeholders="1" c4Name="Система кол-центра" c4Type="Container" c4Technology="React.js, Java Spring Boot, PostgreSQL" c4Description="Клиент-серверная система на платформе подрядчика" label="&lt;font style=&quot;font-size: 16px&quot;&gt;&lt;b&gt;%c4Name%&lt;/b&gt;&lt;/font&gt;&lt;div&gt;[%c4Type%:&amp;nbsp;%c4Technology%]&lt;/div&gt;&lt;br&gt;&lt;div&gt;&lt;font style=&quot;font-size: 11px&quot;&gt;&lt;font color=&quot;#E6E6E6&quot;&gt;%c4Description%&lt;/font&gt;&lt;/div&gt;" id="ZycbsdyIBxvUmtP-3mF8-2">
          <mxCell style="shape=mxgraph.c4.webBrowserContainer2;whiteSpace=wrap;html=1;boundedLbl=1;rounded=0;labelBackgroundColor=none;strokeColor=#118ACD;fillColor=#23A2D9;strokeColor=#118ACD;strokeColor2=#0E7DAD;fontSize=12;fontColor=#ffffff;align=center;metaEdit=1;points=[[0.5,0,0],[1,0.25,0],[1,0.5,0],[1,0.75,0],[0.5,1,0],[0,0.75,0],[0,0.5,0],[0,0.25,0]];resizable=0;" vertex="1" parent="1">
            <mxGeometry x="1070" y="1320" width="240" height="160" as="geometry" />
          </mxCell>
        </object>
        <object placeholders="1" c4Name="online-deposite-api" c4Type="Container" c4Technology="Java, SpringBoot" c4Description="Сервис для обработки заявок на депозит:&#xa;- сохраняет заявки на депозит&#xa;- может показывать заявки на депозит сотрудникам&#xa;- хранит ставки на депозит&#xa;- можно загрузить ставки на депозит из excel файла&#xa;- сотрудник может просматривать ставки на депозит" label="&lt;font style=&quot;font-size: 16px&quot;&gt;&lt;b&gt;%c4Name%&lt;/b&gt;&lt;/font&gt;&lt;div&gt;[%c4Type%: %c4Technology%]&lt;/div&gt;&lt;br&gt;&lt;div&gt;&lt;font style=&quot;font-size: 11px&quot;&gt;&lt;font color=&quot;#E6E6E6&quot;&gt;%c4Description%&lt;/font&gt;&lt;/div&gt;" id="ZycbsdyIBxvUmtP-3mF8-4">
          <mxCell style="rounded=1;whiteSpace=wrap;html=1;fontSize=11;labelBackgroundColor=none;fillColor=#999999;fontColor=#ffffff;align=center;arcSize=35;strokeColor=#0E7DAD;metaEdit=1;resizable=1;points=[[0.25,0,0],[0.5,0,0],[0.75,0,0],[1,0.25,0],[1,0.5,0],[1,0.75,0],[0.75,1,0],[0.5,1,0],[0.25,1,0],[0,0.75,0],[0,0.5,0],[0,0.25,0]];imageHeight=30;" vertex="1" parent="1">
            <mxGeometry x="1500" y="1320" width="330" height="160" as="geometry" />
          </mxCell>
        </object>
        <mxCell id="ZycbsdyIBxvUmtP-3mF8-6" value="Уточнение ставки&lt;br&gt;[HTTPS]" style="edgeLabel;html=1;align=center;verticalAlign=middle;resizable=0;points=[];labelBackgroundColor=none;" vertex="1" connectable="0" parent="1">
          <mxGeometry x="980" y="1405" as="geometry">
            <mxPoint y="-5" as="offset" />
          </mxGeometry>
        </mxCell>
        <mxCell id="ZycbsdyIBxvUmtP-3mF8-7" value="Запросы за актуальной ставкой&lt;br&gt;[REST]" style="edgeLabel;html=1;align=center;verticalAlign=middle;resizable=0;points=[];labelBackgroundColor=none;" vertex="1" connectable="0" parent="1">
          <mxGeometry x="1400" y="1400" as="geometry" />
        </mxCell>
        <object placeholders="1" c4Name="Система партнерского кол-центра" c4Type="Container" c4Technology="Неизвестно" c4Description="Система кол-центра партнера" label="&lt;font style=&quot;font-size: 16px&quot;&gt;&lt;b&gt;%c4Name%&lt;/b&gt;&lt;/font&gt;&lt;div&gt;[%c4Type%:&amp;nbsp;%c4Technology%]&lt;/div&gt;&lt;br&gt;&lt;div&gt;&lt;font style=&quot;font-size: 11px&quot;&gt;&lt;font color=&quot;#E6E6E6&quot;&gt;%c4Description%&lt;/font&gt;&lt;/div&gt;" id="ZycbsdyIBxvUmtP-3mF8-8">
          <mxCell style="shape=mxgraph.c4.webBrowserContainer2;whiteSpace=wrap;html=1;boundedLbl=1;rounded=0;labelBackgroundColor=none;strokeColor=#118ACD;fillColor=#999999;strokeColor=#118ACD;strokeColor2=#0E7DAD;fontSize=12;fontColor=#ffffff;align=center;metaEdit=1;points=[[0.5,0,0],[1,0.25,0],[1,0.5,0],[1,0.75,0],[0.5,1,0],[0,0.75,0],[0,0.5,0],[0,0.25,0]];resizable=0;" vertex="1" parent="1">
            <mxGeometry x="2710" y="1320" width="240" height="160" as="geometry" />
          </mxCell>
        </object>
        <mxCell id="ZycbsdyIBxvUmtP-3mF8-11" style="edgeStyle=orthogonalEdgeStyle;rounded=0;orthogonalLoop=1;jettySize=auto;html=1;" edge="1" parent="1" source="ZycbsdyIBxvUmtP-3mF8-9" target="ZycbsdyIBxvUmtP-3mF8-4">
          <mxGeometry relative="1" as="geometry" />
        </mxCell>
        <object placeholders="1" c4Name="sftp-hosting" c4Type="Container" c4Technology="Java, SpringBoot" c4Description="Хостинг sftp предназначеный для распространения файла с актуальными ставками" label="&lt;font style=&quot;font-size: 16px&quot;&gt;&lt;b&gt;%c4Name%&lt;/b&gt;&lt;/font&gt;&lt;div&gt;[%c4Type%: %c4Technology%]&lt;/div&gt;&lt;br&gt;&lt;div&gt;&lt;font style=&quot;font-size: 11px&quot;&gt;&lt;font color=&quot;#E6E6E6&quot;&gt;%c4Description%&lt;/font&gt;&lt;/div&gt;" id="ZycbsdyIBxvUmtP-3mF8-9">
          <mxCell style="rounded=1;whiteSpace=wrap;html=1;fontSize=11;labelBackgroundColor=none;fillColor=#23A2D9;fontColor=#ffffff;align=center;arcSize=35;strokeColor=#0E7DAD;metaEdit=1;resizable=1;points=[[0.25,0,0],[0.5,0,0],[0.75,0,0],[1,0.25,0],[1,0.5,0],[1,0.75,0],[0.75,1,0],[0.5,1,0],[0.25,1,0],[0,0.75,0],[0,0.5,0],[0,0.25,0]];imageHeight=30;" vertex="1" parent="1">
            <mxGeometry x="2090" y="1320" width="330" height="160" as="geometry" />
          </mxCell>
        </object>
        <mxCell id="ZycbsdyIBxvUmtP-3mF8-12" value="Получение актуальной ставки&lt;br&gt;[REST]" style="text;html=1;align=center;verticalAlign=middle;resizable=0;points=[];autosize=1;strokeColor=none;fillColor=none;" vertex="1" parent="1">
          <mxGeometry x="1870" y="1380" width="200" height="40" as="geometry" />
        </mxCell>
        <mxCell id="ZycbsdyIBxvUmtP-3mF8-14" style="edgeStyle=orthogonalEdgeStyle;rounded=0;orthogonalLoop=1;jettySize=auto;html=1;entryX=1;entryY=0.5;entryDx=0;entryDy=0;entryPerimeter=0;" edge="1" parent="1" source="ZycbsdyIBxvUmtP-3mF8-8" target="ZycbsdyIBxvUmtP-3mF8-9">
          <mxGeometry relative="1" as="geometry" />
        </mxCell>
        <mxCell id="ZycbsdyIBxvUmtP-3mF8-15" value="Получени файла со ставкой&lt;br&gt;&amp;nbsp; [SFTP]" style="edgeLabel;html=1;align=center;verticalAlign=middle;resizable=0;points=[];labelBackgroundColor=none;" vertex="1" connectable="0" parent="ZycbsdyIBxvUmtP-3mF8-14">
          <mxGeometry x="-0.1065" relative="1" as="geometry">
            <mxPoint as="offset" />
          </mxGeometry>
        </mxCell>
      </root>
    </mxGraphModel>
  </diagram>
  <diagram id="rxLG12fxZDFtJF2zhdCl" name="Roadmap">
    <mxGraphModel dx="5425" dy="3642" grid="1" gridSize="10" guides="1" tooltips="1" connect="1" arrows="1" fold="1" page="1" pageScale="1" pageWidth="850" pageHeight="1100" math="0" shadow="0">
      <root>
        <mxCell id="0" />
        <mxCell id="1" parent="0" />
        <mxCell id="tncXSiF3D50eL0d20h6e-14" value="" style="shape=rect;fillColor=#fff2cc;strokeColor=none;fontSize=24;html=1;whiteSpace=wrap;align=left;verticalAlign=top;spacing=5;rounded=0;" vertex="1" parent="1">
          <mxGeometry x="-2500" y="-530" width="1610" height="180" as="geometry" />
        </mxCell>
        <mxCell id="tncXSiF3D50eL0d20h6e-10" value="" style="shape=rect;fillColor=#fff2cc;strokeColor=none;fontSize=24;html=1;whiteSpace=wrap;align=left;verticalAlign=top;spacing=5;rounded=0;" vertex="1" parent="1">
          <mxGeometry x="-2500" y="-730" width="1610" height="180" as="geometry" />
        </mxCell>
        <mxCell id="tncXSiF3D50eL0d20h6e-1" value="" style="shape=rect;fillColor=#fff2cc;strokeColor=none;fontSize=24;html=1;whiteSpace=wrap;align=left;verticalAlign=top;spacing=5;rounded=0;" vertex="1" parent="1">
          <mxGeometry x="-2500" y="-930" width="1610" height="180" as="geometry" />
        </mxCell>
        <mxCell id="tncXSiF3D50eL0d20h6e-2" value="" style="shape=rect;fillColor=#fff2cc;strokeColor=none;fontSize=24;html=1;whiteSpace=wrap;align=left;verticalAlign=top;spacing=5;rounded=0;" vertex="1" parent="1">
          <mxGeometry x="-2500" y="-1146.8" width="1610" height="196.8" as="geometry" />
        </mxCell>
        <mxCell id="tncXSiF3D50eL0d20h6e-3" value="T1 - Реализация платформы SFTP" style="shape=rect;fillColor=#ffe6cc;strokeColor=#d79b00;fontSize=18;html=1;whiteSpace=wrap;align=left;verticalAlign=top;spacing=5;rounded=0;" vertex="1" parent="1">
          <mxGeometry x="-2480" y="-1120" width="330" height="50" as="geometry" />
        </mxCell>
        <mxCell id="tncXSiF3D50eL0d20h6e-5" value="Сервис раздачи SFTP файлов" style="rounded=0;whiteSpace=wrap;html=1;fillColor=#f5f5f5;fontColor=#333333;strokeColor=#666666;fontSize=18;" vertex="1" parent="1">
          <mxGeometry x="-2630" y="-1146.8" width="120" height="196.8" as="geometry" />
        </mxCell>
        <mxCell id="tncXSiF3D50eL0d20h6e-6" value="Сервис онлайн депозитов" style="rounded=0;whiteSpace=wrap;html=1;fillColor=#f5f5f5;fontColor=#333333;strokeColor=#666666;fontSize=18;" vertex="1" parent="1">
          <mxGeometry x="-2630" y="-930" width="120" height="180" as="geometry" />
        </mxCell>
        <mxCell id="tncXSiF3D50eL0d20h6e-7" value="Q2" style="shape=step;perimeter=stepPerimeter;whiteSpace=wrap;html=1;fixedSize=1;size=10;fillColor=#f5f5f5;strokeColor=#666666;fontSize=18;fontStyle=1;align=center;rounded=0;fontColor=#333333;" vertex="1" parent="1">
          <mxGeometry x="-2500" y="-1240" width="1610" height="74.4" as="geometry" />
        </mxCell>
        <mxCell id="tncXSiF3D50eL0d20h6e-8" value="T5 - Дизайн отображения для сотрудника информации по текущим ставкам" style="shape=rect;fillColor=#ffe6cc;strokeColor=#d79b00;fontSize=18;html=1;whiteSpace=wrap;align=center;verticalAlign=top;spacing=5;rounded=0;" vertex="1" parent="1">
          <mxGeometry x="-2480" y="-720" width="330" height="80" as="geometry" />
        </mxCell>
        <mxCell id="tncXSiF3D50eL0d20h6e-9" value="T4 - Реализовать авторизация для внешних сервисов" style="shape=rect;fillColor=#ffe6cc;strokeColor=#d79b00;fontSize=18;html=1;whiteSpace=wrap;align=center;verticalAlign=top;spacing=5;rounded=0;" vertex="1" parent="1">
          <mxGeometry x="-2480" y="-910" width="330" height="60" as="geometry" />
        </mxCell>
        <mxCell id="tncXSiF3D50eL0d20h6e-11" value="Кол-центр" style="rounded=0;whiteSpace=wrap;html=1;fillColor=#f5f5f5;fontColor=#333333;strokeColor=#666666;fontSize=18;" vertex="1" parent="1">
          <mxGeometry x="-2630" y="-730" width="120" height="180" as="geometry" />
        </mxCell>
        <mxCell id="tncXSiF3D50eL0d20h6e-15" value="Партнерский кол-центр" style="rounded=0;whiteSpace=wrap;html=1;fillColor=#f5f5f5;fontColor=#333333;strokeColor=#666666;fontSize=18;" vertex="1" parent="1">
          <mxGeometry x="-2630" y="-530" width="120" height="180" as="geometry" />
        </mxCell>
        <mxCell id="tncXSiF3D50eL0d20h6e-16" value="T3 - настройка аутентификации по SSH с помощью ключей для партнерского кол-центра" style="shape=rect;fillColor=#ffe6cc;strokeColor=#d79b00;fontSize=18;html=1;whiteSpace=wrap;align=left;verticalAlign=top;spacing=5;rounded=0;" vertex="1" parent="1">
          <mxGeometry x="-1750" y="-1120" width="480" height="50" as="geometry" />
        </mxCell>
        <mxCell id="tncXSiF3D50eL0d20h6e-17" value="T2 - Р&lt;span style=&quot;text-align: center;&quot;&gt;еализация переодической задачи по походу в сервис онлайн депозитов&lt;/span&gt;" style="shape=rect;fillColor=#ffe6cc;strokeColor=#d79b00;fontSize=18;html=1;whiteSpace=wrap;align=left;verticalAlign=top;spacing=5;rounded=0;" vertex="1" parent="1">
          <mxGeometry x="-2150" y="-1040" width="400" height="50" as="geometry" />
        </mxCell>
        <mxCell id="tncXSiF3D50eL0d20h6e-19" value="T5 - Реализация дизайна на фронтенде" style="shape=rect;fillColor=#ffe6cc;strokeColor=#d79b00;fontSize=18;html=1;whiteSpace=wrap;align=center;verticalAlign=top;spacing=5;rounded=0;" vertex="1" parent="1">
          <mxGeometry x="-2140" y="-720" width="330" height="60" as="geometry" />
        </mxCell>
        <mxCell id="tncXSiF3D50eL0d20h6e-20" value="T6 - Реализация получения данных из сервиса онлайн депозитов" style="shape=rect;fillColor=#ffe6cc;strokeColor=#d79b00;fontSize=18;html=1;whiteSpace=wrap;align=center;verticalAlign=top;spacing=5;rounded=0;" vertex="1" parent="1">
          <mxGeometry x="-2140" y="-640" width="330" height="60" as="geometry" />
        </mxCell>
        <mxCell id="tncXSiF3D50eL0d20h6e-21" value="T6 - Реализация получения реальных данных на фронтенде" style="shape=rect;fillColor=#ffe6cc;strokeColor=#d79b00;fontSize=18;html=1;whiteSpace=wrap;align=center;verticalAlign=top;spacing=5;rounded=0;" vertex="1" parent="1">
          <mxGeometry x="-1790" y="-680" width="330" height="60" as="geometry" />
        </mxCell>
        <mxCell id="tncXSiF3D50eL0d20h6e-22" value="T7 -&amp;nbsp;&lt;span style=&quot;background-color: transparent;&quot;&gt;реализация получения данных из файла и их отображения для сотрудников кол-центра&lt;/span&gt;&lt;div&gt;&lt;span style=&quot;background-color: transparent; color: light-dark(rgb(0, 0, 0), rgb(255, 255, 255));&quot;&gt;&lt;br&gt;&lt;/span&gt;&lt;/div&gt;" style="shape=rect;fillColor=#ffe6cc;strokeColor=#d79b00;fontSize=18;html=1;whiteSpace=wrap;align=center;verticalAlign=top;spacing=5;rounded=0;" vertex="1" parent="1">
          <mxGeometry x="-1270" y="-480" width="330" height="80" as="geometry" />
        </mxCell>
      </root>
    </mxGraphModel>
  </diagram>
</mxfile>
